# xmcd
#
# Track frame offsets: 
#        187
#        11475
#        28287
#        45085
#        62005
#        77735
#        93680
#        110200
#        125900
#
# Disc length: 1909 seconds
#
# Revision: 5
# Processed by: cddbd v1.5.2PL0 Copyright (c) Steve Scherf et al.
# Submitted via: ExactAudioCopyFreeDBPlugin 1.0
#
DISCID=77077309
DTITLE=The Judds - Heartland
DYEAR=1987
DGENRE=Country
TTITLE0=Don't Be Cruel
TTITLE1=I'm Falling In Love Tonight
TTITLE2=Turn It Loose
TTITLE3=Old Pictures
TTITLE4=Cow Cow Boogie
TTITLE5=Maybe Your Baby's Got The Blues
TTITLE6=I Know Where I'm Going
TTITLE7=Why Don't You Believe Me
TTITLE8=The Sweetest Gift
EXTD=Year - 1987\n\nCurb Records  5916-2-R\n\nRCA - Ariola Internation
EXTD=al
EXTT0=
EXTT1=
EXTT2=
EXTT3=
EXTT4=
EXTT5=
EXTT6=
EXTT7=
EXTT8=
PLAYORDER=
